<?xml version="1.0" standalone="no"?>
<!DOCTYPE svg PUBLIC "-//W3C//DTD SVG 20010904//EN"
 "http://www.w3.org/TR/2001/REC-SVG-20010904/DTD/svg10.dtd">
<svg version="1.0" xmlns="http://www.w3.org/2000/svg"
 width="500.000000pt" height="500.000000pt" viewBox="0 0 500.000000 500.000000"
 preserveAspectRatio="xMidYMid meet">

<g transform="translate(0.000000,500.000000) scale(0.100000,-0.100000)"
fill="#ffffff" stroke="none">
<path d="M0 2500 l0 -2500 2500 0 2500 0 0 2500 0 2500 -2500 0 -2500 0 0
-2500z m1084 1558 c14 -20 16 -97 16 -640 l0 -617 22 -15 c14 -10 44 -16 75
-16 48 0 54 -3 63 -26 6 -14 10 -45 10 -68 0 -48 12 -63 58 -72 74 -15 112 15
112 90 0 28 5 57 12 64 7 7 36 12 65 12 40 0 58 5 73 20 20 20 20 33 20 639 0
550 2 621 16 635 13 14 60 16 364 16 l349 0 15 -22 c14 -20 16 -88 16 -543 0
-597 5 -565 -82 -565 -69 0 -88 -18 -88 -83 0 -68 -18 -87 -83 -87 -68 0 -87
-18 -87 -83 0 -80 -12 -87 -147 -87 -100 0 -115 -2 -133 -20 -20 -20 -20 -33
-20 -569 0 -486 -2 -551 -16 -565 -13 -14 -60 -16 -358 -16 -258 0 -346 3
-359 13 -15 11 -17 62 -19 570 -3 540 -4 559 -22 573 -14 10 -51 14 -132 14
-134 0 -144 6 -144 81 0 68 -22 89 -95 89 -64 0 -75 12 -75 89 0 61 -22 81
-92 81 -83 0 -78 -38 -78 565 0 472 2 535 16 549 13 14 60 16 364 16 l349 0
15 -22z m3590 0 c14 -19 16 -70 16 -358 0 -288 -2 -339 -16 -358 -14 -21 -22
-22 -153 -22 -161 0 -162 1 -169 88 -5 68 -19 82 -82 82 -79 0 -79 0 -82 208
-3 179 -4 184 -27 203 -29 23 -98 25 -129 3 l-22 -15 0 -1202 c0 -1072 -2
-1205 -16 -1225 l-15 -22 -346 0 c-308 0 -348 2 -365 17 -17 15 -18 66 -18
1220 0 1190 0 1203 -20 1223 -15 15 -33 20 -70 20 -37 0 -55 -5 -70 -20 -19
-19 -20 -33 -20 -205 0 -211 2 -205 -89 -205 -63 0 -81 -22 -81 -97 0 -41 -4
-54 -19 -63 -11 -5 -77 -10 -147 -10 -105 0 -131 3 -146 17 -17 15 -18 40 -18
364 0 303 2 350 16 363 14 14 122 16 1044 16 l1029 0 15 -22z m-1864 -2258 l0
-700 115 0 c63 0 115 -2 115 -4 0 -7 -532 -711 -539 -714 -7 -2 -541 701 -541
713 0 3 50 5 110 5 l110 0 0 700 0 700 315 0 315 0 0 -700z"/>
</g>
</svg>
